<svg width="24" height="24" viewBox="0 0 24 24" fill="none" xmlns="http://www.w3.org/2000/svg">
  <path d="M12 22C17.5228 22 22 17.5228 22 12C22 6.47715 17.5228 2 12 2C6.47715 2 2 6.47715 2 12C2 17.5228 6.47715 22 12 22Z" fill="#A0A3BD" fill-opacity="0.8"/>
  <path d="M12.3296 17C12.1496 17.06 11.8396 17.06 11.6596 17C10.0996 16.47 6.59961 14.24 6.59961 10.46C6.59961 8.78999 7.93961 7.44 9.59961 7.44C10.5796 7.44 11.4496 7.90999 11.9996 8.64999C12.5396 7.91999 13.4196 7.44 14.3996 7.44C16.0596 7.44 17.3996 8.78999 17.3996 10.46C17.3996 14.24 13.8996 16.47 12.3296 17Z" fill="url(#paint1_linear_141_978)" fill-opacity="0.6"/>
  <defs>
    <linearGradient id="paint0_linear_141_978" x1="-5.28875" y1="21.5758" x2="34.6544" y2="45.1048" gradientUnits="userSpaceOnUse">
      <stop stop-color="#F74545" />
      <stop offset="101.41%" stop-color="#3384F5" />
    </linearGradient>
    <linearGradient id="paint1_linear_141_978" x1="-4.7514" y1="50.0274" x2="23.777" y2="76.5332" gradientUnits="userSpaceOnUse">
      <stop stop-color="#F74545" />
      <stop offset="101.41%" stop-color="#3384F5" />
    </linearGradient>
  </defs>
</svg>
