<svg width="10" height="8" viewBox="0 0 10 8" fill="none" xmlns="http://www.w3.org/2000/svg">
<path d="M9.88846 4.46998C9.88846 4.07998 9.57831 3.76998 9.18811 3.76998C8.79792 3.76998 8.48776 4.07998 8.48776 4.46998V4.64998L5.76641 1.92998C5.61633 1.77998 5.41623 1.70998 5.20613 1.72998C4.99602 1.74998 4.80593 1.85998 4.69587 2.03998L3.67536 3.55998L1.31419 1.17998C1.04405 0.909978 0.603834 0.909978 0.323695 1.17998C0.0535601 1.44998 0.0535601 1.88998 0.323695 2.16998L3.30518 5.14998C3.45526 5.29998 3.65535 5.36998 3.86546 5.34998C4.07556 5.32998 4.26566 5.21998 4.37571 5.03998L5.39622 3.51998L7.50727 5.62998H7.32718C6.93699 5.62998 6.62683 5.93998 6.62683 6.32998C6.62683 6.71998 6.93699 7.02998 7.32718 7.02998H9.18811C9.27816 7.02998 9.3682 7.00998 9.45825 6.97998C9.62833 6.90998 9.7684 6.76998 9.83844 6.59998C9.87846 6.50998 9.88846 6.41998 9.88846 6.32998V4.46998Z" fill="#E61919"/>
</svg>
